Coordinates
version=1
nRows=11
nColumns=40
inDegrees=yes

Units are S.I. units (second, meters, Newtons, ...)
If the header above contains a line with 'inDegrees', this indicates whether rotational values are in degrees (yes) or radians (no).

endheader
time	pelvis_tilt	pelvis_list	pelvis_rotation	pelvis_tx	pelvis_ty	pelvis_tz	hip_flexion_r	hip_adduction_r	hip_rotation_r	knee_angle_r	knee_angle_r_beta	ankle_angle_r	subtalar_angle_r	mtp_angle_r	hip_flexion_l	hip_adduction_l	hip_rotation_l	knee_angle_l	knee_angle_l_beta	ankle_angle_l	subtalar_angle_l	mtp_angle_l	lumbar_extension	lumbar_bending	lumbar_rotation	arm_flex_r	arm_add_r	arm_rot_r	elbow_flex_r	pro_sup_r	wrist_flex_r	wrist_dev_r	arm_flex_l	arm_add_l	arm_rot_l	elbow_flex_l	pro_sup_l	wrist_flex_l	wrist_dev_l
      3.22500000	    -29.27496255	     -9.56627822	     -3.83226690	     -0.37186756	      0.70760295	     -0.72769138	     85.07017714	     13.64568038	     -9.43715014	     89.47237513	      1.56158754	     29.82622610	      0.00000000	      0.00000000	     34.21408192	     -7.30100612	      8.84636326	     98.21560452	      1.71418568	     -8.37265940	      0.00000000	      0.00000000	    -18.40647077	     10.54342944	      7.52645784	     89.94983978	    -12.06665796	      8.11536602	     59.76807194	     83.26971347	      0.00000000	      0.00000000	     89.95063178	     -5.80002705	      6.59441655	     56.01990310	     81.31069489	      0.00000000	      0.00000000
      3.23000000	    -29.24441028	     -9.70842005	     -3.73286264	     -0.37182122	      0.70767862	     -0.72778810	     85.00423837	     13.60001680	     -9.58435665	     89.42108822	      1.56069241	     30.08569076	      0.00000000	      0.00000000	     34.29564292	     -7.34985773	      9.02853142	     98.29948060	      1.71564959	     -8.54866310	      0.00000000	      0.00000000	    -18.47819125	     10.71440935	      7.51188760	     89.94971635	    -12.12822233	      7.81217785	     59.89386881	     86.51632432	      0.00000000	      0.00000000	     89.95041373	     -5.82016989	      6.31779894	     56.15073972	     84.56433514	      0.00000000	      0.00000000
      3.23500000	    -29.25841104	     -9.58331981	     -3.74337961	     -0.37185911	      0.70759442	     -0.72787845	     85.05750687	     13.58514755	     -9.43287173	     89.48782012	      1.56185710	     29.86092562	      0.00000000	      0.00000000	     34.33236865	     -7.19092131	      8.92945599	     98.34313464	      1.71641150	     -8.35668873	      0.00000000	      0.00000000	    -18.42151039	     10.58818679	      7.46015679	     89.94990634	    -12.08191655	      8.11457712	     59.78070644	     83.33308838	      0.00000000	      0.00000000	     89.95066970	     -5.79810429	      6.59517928	     56.03687425	     81.44497006	      0.00000000	      0.00000000
      3.24000000	    -29.26457464	     -9.67371664	     -3.67784292	     -0.37189145	      0.70760243	     -0.72788294	     85.04996324	     13.57729393	     -9.49919719	     89.45387142	      1.56126458	     30.08325959	      0.00000000	      0.00000000	     34.45030425	     -7.22248399	      9.05370071	     98.42925859	      1.71791464	     -8.51371341	      0.00000000	      0.00000000	    -18.45046741	     10.70114317	      7.46907765	     89.94968807	    -12.14066906	      7.80900908	     59.91112748	     86.52096429	      0.00000000	      0.00000000	     89.95051905	     -5.78061338	      6.27934056	     56.15038333	     84.54877069	      0.00000000	      0.00000000
      3.24500000	    -29.21188971	     -9.71250007	     -3.62806012	     -0.37179997	      0.70773223	     -0.72794669	     84.98431233	     13.56450092	     -9.52091624	     89.44236904	      1.56106383	     30.09559430	      0.00000000	      0.00000000	     34.44498906	     -7.21157636	      9.11601508	     98.46316573	      1.71850643	     -8.56997583	      0.00000000	      0.00000000	    -18.51153124	     10.74648222	      7.45066388	     89.94973058	    -12.14331034	      7.79971254	     59.91656252	     86.48223250	      0.00000000	      0.00000000	     89.95052551	     -5.75911725	      6.26486471	     56.14869656	     84.46975314	      0.00000000	      0.00000000
      3.25000000	    -29.21604441	     -9.70650401	     -3.56549737	     -0.37180979	      0.70770082	     -0.72807288	     84.99892250	     13.51425975	     -9.49925361	     89.46648696	      1.56148477	     30.11766010	      0.00000000	      0.00000000	     34.52313268	     -7.13558516	      9.16796153	     98.52491998	      1.71958425	     -8.52941694	      0.00000000	      0.00000000	    -18.49509206	     10.76500283	      7.40190526	     89.94966865	    -12.15944679	      7.80935814	     59.92115279	     86.53194767	      0.00000000	      0.00000000	     89.95056384	     -5.77338574	      6.29733551	     56.15593053	     84.49274246	      0.00000000	      0.00000000
      3.25500000	    -29.21589779	     -9.67620821	     -3.51722365	     -0.37182414	      0.70770042	     -0.72814473	     85.00065390	     13.48649728	     -9.43309724	     89.47777258	      1.56168174	     30.11059714	      0.00000000	      0.00000000	     34.59275696	     -7.05542861	      9.19775067	     98.58126512	      1.72056766	     -8.52630841	      0.00000000	      0.00000000	    -18.48536849	     10.74628811	      7.35954160	     89.94971772	    -12.16642894	      7.81009178	     59.92172342	     86.48628479	      0.00000000	      0.00000000	     89.95052158	     -5.75686134	      6.28667805	     56.15960339	     84.57811595	      0.00000000	      0.00000000
      3.26000000	    -29.19652646	     -9.70417784	     -3.49988104	     -0.37180386	      0.70776282	     -0.72811282	     84.98655864	     13.50287294	     -9.44463594	     89.47752430	      1.56167741	     30.14176141	      0.00000000	      0.00000000	     34.63308631	     -7.06179479	      9.25252040	     98.65983888	      1.72193903	     -8.26084060	      0.00000000	      0.00000000	    -18.50634764	     10.77087043	      7.38524539	     89.94974086	    -12.20362694	      7.81976371	     59.94163360	     86.47125707	      0.00000000	      0.00000000	     89.95051562	     -5.71268855	      6.27928085	     56.15031931	     84.43746686	      0.00000000	      0.00000000
      3.26500000	    -29.21212361	     -9.59093451	     -3.48898601	     -0.37186543	      0.70773098	     -0.72820814	     85.03057460	     13.47241757	     -9.29655695	     89.52468768	      1.56250056	     29.90037337	      0.00000000	      0.00000000	     34.67412136	     -6.91503846	      9.16434479	     98.67698819	      1.72223834	     -8.17370320	      0.00000000	      0.00000000	    -18.44431010	     10.66605543	      7.33554627	     89.94992280	    -12.16801159	      8.13314849	     59.80802503	     83.24757706	      0.00000000	      0.00000000	     89.95086936	     -5.71572778	      6.61228273	     56.05002504	     81.33124725	      0.00000000	      0.00000000
      3.27000000	    -29.21979634	     -9.65315879	     -3.41613003	     -0.37189286	      0.70775763	     -0.72825634	     85.02127338	     13.43096112	     -9.35198383	     89.50318391	      1.56212525	     30.11478486	      0.00000000	      0.00000000	     34.78232388	     -6.92204671	      9.28987421	     98.73921535	      1.72332441	     -8.37479185	      0.00000000	      0.00000000	    -18.46711573	     10.74459596	      7.31543605	     89.94974180	    -12.21045490	      7.79964364	     59.95409367	     86.51486586	      0.00000000	      0.00000000	     89.95059731	     -5.71030960	      6.34356636	     56.16489878	     83.99305735	      0.00000000	      0.00000000
      3.27500000	    -29.17791004	     -9.61693174	     -3.39984017	     -0.37180752	      0.70789303	     -0.72829868	     84.98010291	     13.42277192	     -9.29665179	     89.51145344	      1.56226958	     29.94327742	      0.00000000	      0.00000000	     34.75539862	     -6.85002266	      9.28849777	     98.74311042	      1.72339239	     -8.25124037	      0.00000000	      0.00000000	    -18.47807891	     10.71464616	      7.29698490	     89.94996241	    -12.18435737	      8.11584656	     59.81913724	     83.58076292	      0.00000000	      0.00000000	     89.95083148	     -5.72170583	      6.62572838	     56.07597811	     81.21293328	      0.00000000	      0.00000000
